# File created by Blade
# Date/Time:  Wed Jan 21 19:09:01 2015
#---------------------------------------------------------
:version 1.10
:name HOM
:units
  mass 1.0
  length 1.000000
  angle deg
:documentation
     Acclaim Skeleton File
:root
   axis xyz
   order TX TY TZ RX RY RZ
   position 0.000000 0.000000 0.000000
   orientation 0 0 0
:bonedata
   begin
      id 1
      name RightUpLeg_dum
      direction -1.000000 0.000000 0.000000
      length 3.693983
      axis 0.0 0.0 0.0 xyz
   end
   begin
      id 2
      name LeftUpLeg_dum
      direction 1.000000 0.000000 0.000000
      length 3.693983
      axis 0.0 0.0 0.0 xyz
   end
   begin
      id 3
      name Spine_dum
      direction 0.000000 1.000000 0.000000
      length 2.392956
      axis 0.0 0.0 0.0 xyz
   end
   begin
      id 4
      name RightUpLeg
      direction 0.000000 -1.000000 0.000000
      length 15.795667
      axis 0.0 0.0 0.0 xyz
      dof rx ry rz
   end
   begin
      id 5
      name RightLeg
      direction 0.000000 -1.000000 0.000000
      length 14.766989
      axis 0.0 0.0 0.0 xyz
      dof rx ry rz
   end
   begin
      id 6
      name RightFoot
      direction 0.000000 -0.258819 0.965926
      length 4.962790
      axis 15.0 0.0 0.0 xyz
      dof rx ry rz
   end
   begin
      id 7
      name RightToeBase
      direction 0.000000 0.000000 1.000000
      length 2.952750
      axis 0.0 0.0 0.0 xyz
      dof rx ry rz
   end
   begin
      id 8
      name LeftUpLeg
      direction 0.000000 -1.000000 0.000000
      length 15.795667
      axis 0.0 0.0 0.0 xyz
      dof rx ry rz
   end
   begin
      id 9
      name LeftLeg
      direction 0.000000 -1.000000 0.000000
      length 14.766989
      axis 0.0 0.0 0.0 xyz
      dof rx ry rz
   end
   begin
      id 10
      name LeftFoot
      direction 0.000000 -0.258819 0.965926
      length 4.962790
      axis 15.0 0.0 0.0 xyz
      dof rx ry rz
   end
   begin
      id 11
      name LeftToeBase
      direction 0.000000 0.000000 1.000000
      length 2.952750
      axis 0.0 0.0 0.0 xyz
      dof rx ry rz
   end
   begin
      id 12
      name Spine
      direction 0.000000 1.000000 0.000000
      length 0.000000
      axis 0.0 0.0 0.0 xyz
      dof rx ry rz
   end
   begin
      id 13
      name Spine_dum1
      direction 0.000000 1.000000 0.000000
      length 13.207411
      axis 0.0 0.0 0.0 xyz
   end
   begin
      id 14
      name Spine_dum2
      direction 0.000000 1.000000 0.000000
      length 13.207411
      axis 0.0 0.0 0.0 xyz
   end
   begin
      id 15
      name Spine_dum3
      direction 0.000000 1.000000 0.000000
      length 19.250100
      axis 0.0 0.0 0.0 xyz
   end
   begin
      id 16
      name RightShoulder
      direction -1.000000 0.000000 0.000000
      length 8.140465
      axis 0.0 0.0 90.0 xyz
      dof rx ry rz
   end
   begin
      id 17
      name RightArm
      direction -1.000000 0.000000 0.000000
      length 10.649840
      axis 0.0 0.0 90.0 xyz
      dof rx ry rz
   end
   begin
      id 18
      name RightForeArm
      direction -1.000000 0.000000 0.000000
      length 8.304624
      axis 0.0 0.0 90.0 xyz
      dof ry rz rx
   end
   begin
      id 19
      name RightHand
      direction -1.000000 0.000000 0.000000
      length 0.000000
      axis 0.0 0.0 90.0 xyz
      dof rx ry rz
   end
   begin
      id 20
      name RightHand_dum1
      direction -1.000000 0.000000 0.000000
      length 3.937000
      axis 0.0 0.0 90.0 xyz
   end
   begin
      id 21
      name RightHand_dum2
      direction 0.000000 0.000000 0.000000
      length 0.000000
      axis 0.0 0.0 90.0 xyz
   end
   begin
      id 22
      name RightHandThumb1
      direction 0.000000 0.000000 1.000000
      length 3.937000
      axis 0.0 0.0 90.0 xyz
      dof rx rz ry
   end
   begin
      id 23
      name LeftShoulder
      direction 1.000000 0.000000 0.000000
      length 8.140465
      axis 0.0 0.0 -90.0 xyz
      dof rx ry rz
   end
   begin
      id 24
      name LeftArm
      direction 1.000000 0.000000 0.000000
      length 10.649840
      axis 0.0 0.0 -90.0 xyz
      dof rx ry rz
   end
   begin
      id 25
      name LeftForeArm
      direction 1.000000 0.000000 0.000000
      length 8.304624
      axis 0.0 0.0 -90.0 xyz
      dof ry rz rx
   end
   begin
      id 26
      name LeftHand
      direction 1.000000 0.000000 0.000000
      length 0.000000
      axis 0.0 0.0 -90.0 xyz
      dof rx ry rz
   end
   begin
      id 27
      name LeftHand_dum1
      direction 1.000000 0.000000 0.000000
      length 3.937000
      axis 0.0 0.0 -90.0 xyz
   end
   begin
      id 28
      name LeftHand_dum2
      direction 0.000000 0.000000 0.000000
      length 0.000000
      axis 0.0 0.0 -90.0 xyz
   end
   begin
      id 29
      name LeftHandThumb1
      direction 0.000000 0.000000 1.000000
      length 3.937000
      axis 0.0 0.0 -90.0 xyz
      dof rx rz ry
   end
   begin
      id 30
      name Head
      direction 0.000000 1.000000 0.000000
      length 4.527550
      axis 0.0 0.0 0.0 xyz
      dof rx ry rz
   end
:hierarchy
   begin
      root RightUpLeg_dum LeftUpLeg_dum Spine_dum
      RightUpLeg_dum RightUpLeg
      LeftUpLeg_dum LeftUpLeg
      Spine_dum Spine
      RightUpLeg RightLeg
      RightLeg RightFoot
      RightFoot RightToeBase
      LeftUpLeg LeftLeg
      LeftLeg LeftFoot
      LeftFoot LeftToeBase
      Spine Spine_dum1 Spine_dum2 Spine_dum3
      Spine_dum1 RightShoulder
      Spine_dum2 LeftShoulder
      Spine_dum3 Head
      RightShoulder RightArm
      RightArm RightForeArm
      RightForeArm RightHand
      RightHand RightHand_dum1 RightHand_dum2
      RightHand_dum2 RightHandThumb1
      LeftShoulder LeftArm
      LeftArm LeftForeArm
      LeftForeArm LeftHand
      LeftHand LeftHand_dum1 LeftHand_dum2
      LeftHand_dum2 LeftHandThumb1
   end

# File created by Blade
# Date/Time:  Wed Jan 21 19:08:52 2015
# Frame Rate: 120.000 fps
#------------------------------------------------------
:FULLY-SPECIFIED
:DEGREES
789
root -0.027632 31.697176 -8.641808 72.480355 28.110425 8.050051
RightUpLeg -76.758699 9.197190 1.650893
RightLeg 6.495817 -0.000000 -0.000000
RightFoot -4.875882 -2.031764 3.475329
RightToeBase 19.607940 -0.000000 -0.000000
LeftUpLeg -59.527071 -13.308093 -3.044023
LeftLeg -4.786239 -0.000000 0.000000
LeftFoot 0.669065 -27.931148 -27.468935
LeftToeBase 17.129064 -0.000000 -0.000000
Spine -34.818198 -36.682992 -10.985049
RightShoulder -25.605940 11.945481 -72.037173
RightArm -12.823870 -16.934034 26.564257
RightForeArm 11.941390 0.000000 -9.341941
RightHand 11.804230 -0.000000 1.262431
RightHandThumb1 -24.326973 -0.000000 -32.862282
LeftShoulder -0.367241 0.848661 3.609733
LeftArm 23.511947 19.696268 -68.072538
LeftForeArm 12.596695 -0.000000 -4.863967
LeftHand -20.023435 0.000000 8.893682
LeftHandThumb1 -26.253704 0.000000 33.147579
Head -14.088339 -3.903461 -26.572821
790
root -0.029587 31.697172 -8.650067 72.391832 28.079645 8.048853
RightUpLeg -76.650409 9.177638 1.710781
RightLeg 6.443267 -0.000000 -0.000000
RightFoot -4.851036 -1.957398 3.441773
RightToeBase 19.665568 -0.000000 -0.000000
LeftUpLeg -59.436661 -13.313130 -3.056764
LeftLeg -4.828050 -0.000000 0.000000
LeftFoot 0.706004 -27.885978 -27.581503
LeftToeBase 17.162064 -0.000000 -0.000000
Spine -34.874227 -36.570597 -10.884075
RightShoulder -25.590916 11.766236 -71.938476
RightArm -12.675109 -16.816265 26.616969
RightForeArm 11.954137 -0.000000 -9.319958
RightHand 11.966525 -0.000000 1.110239
RightHandThumb1 -24.326973 -0.000000 -32.862282
LeftShoulder -0.351326 0.899507 3.614328
LeftArm 23.456162 19.723173 -68.274268
LeftForeArm 12.654105 -0.000000 -4.863555
LeftHand -20.029721 0.000000 8.895477
LeftHandThumb1 -26.253704 0.000000 33.147579
Head -14.097493 -3.899085 -26.366368
791
root -0.032402 31.696552 -8.658747 72.308256 28.060984 8.054856
RightUpLeg -76.572113 9.164602 1.722151
RightLeg 6.432899 -0.000000 -0.000000
RightFoot -4.863261 -1.922910 3.504119
RightToeBase 19.753913 -0.000000 -0.000000
LeftUpLeg -59.352716 -13.322026 -3.067979
LeftLeg -4.855781 -0.000000 0.000000
LeftFoot 0.744022 -27.875059 -27.726174
LeftToeBase 17.348847 -0.000000 -0.000000
Spine -34.946969 -36.499167 -10.732324
RightShoulder -25.571970 11.924244 -71.876278
RightArm -12.693823 -16.989381 26.582006
RightForeArm 12.015168 -0.000000 -9.250585
RightHand 11.579159 -0.000000 1.547447
RightHandThumb1 -24.326973 -0.000000 -32.862282
LeftShoulder -0.397444 0.871452 3.644749
LeftArm 23.334161 19.824662 -68.515883
LeftForeArm 12.653549 -0.000000 -4.842915
LeftHand -20.090856 0.000000 8.923845
LeftHandThumb1 -26.253704 0.000000 33.147579
Head -14.154333 -3.840858 -26.160554
792
root -0.034347 31.696819 -8.667299 72.231749 28.041398 8.060799
RightUpLeg -76.490685 9.150003 1.735376
RightLeg 6.402695 -0.000000 -0.000000
RightFoot -4.829057 -1.893612 3.498326
RightToeBase 19.708771 -0.000000 -0.000000
LeftUpLeg -59.270474 -13.321841 -3.097295
LeftLeg -4.892966 -0.000000 0.000000
LeftFoot 0.750763 -27.830656 -27.786924
LeftToeBase 17.327526 -0.000000 -0.000000
Spine -35.045150 -36.425565 -10.575907
RightShoulder -25.507299 11.924026 -71.793125
RightArm -12.664301 -16.968904 26.617913
RightForeArm 12.052807 -0.000000 -9.219949
RightHand 11.696796 -0.000000 1.302091
RightHandThumb1 -24.326973 -0.000000 -32.862282
LeftShoulder -0.406280 0.909480 3.684881
LeftArm 23.213476 19.782023 -68.794828
LeftForeArm 12.654186 -0.000000 -4.791495
LeftHand -20.004688 -0.000000 8.954803
LeftHandThumb1 -26.253704 0.000000 33.147579
Head -14.192286 -3.856230 -25.930060
793
root -0.036436 31.697983 -8.677251 72.157078 28.045526 8.076783
RightUpLeg -76.410482 9.123036 1.759373
RightLeg 6.376106 -0.000000 -0.000000
RightFoot -4.804171 -1.880878 3.553943
RightToeBase 19.740622 -0.000000 -0.000000
LeftUpLeg -59.199925 -13.337771 -3.118461
LeftLeg -4.903042 -0.000000 0.000000
LeftFoot 0.768724 -27.794870 -27.849078
LeftToeBase 17.308661 -0.000000 -0.000000
Spine -35.115518 -36.352105 -10.405281
RightShoulder -25.495244 11.916681 -71.671265
RightArm -12.594353 -17.049294 26.608937
RightForeArm 12.165358 -0.000000 -9.168802
RightHand 11.592013 -0.000000 1.571412
RightHandThumb1 -24.326973 -0.000000 -32.862282
LeftShoulder -0.437920 0.886720 3.720975
LeftArm 23.087081 19.816767 -69.066524
LeftForeArm 12.667583 0.000000 -4.742608
LeftHand -20.044976 0.000000 8.814578
LeftHandThumb1 -26.253704 0.000000 33.147579
Head -14.256988 -3.777480 -25.662324
